Coordinates
version=1
nRows=60
nColumns=12
inDegrees=yes

Units are S.I. units (second, meters, Newtons, ...)
Angles are in degrees

endheader
time	SC_y	SC_z	SC_x	AC_y	AC_z	AC_x	GH_y	GH_z	GH_yy	EL_x	PS_y
       0.0              -12.88          37.25          48.95          51.93          8.905        -0.9221          118.1         -17.41          52.83          119.5          107.9
   0.02643              -12.89          37.25          48.95          51.93          8.905        -0.9191          118.1         -17.41          52.84          119.5          107.9
   0.05286              -12.89          37.25          48.94          51.94          8.904         -0.916          118.1          -17.4          52.84          119.5          107.9
   0.07929              -12.89          37.24          48.94          51.94          8.903        -0.9127          118.1          -17.4          52.85          119.5          107.9
    0.1057              -12.89          37.24          48.94          51.94          8.903        -0.9091          118.1          -17.4          52.86          119.5          107.9
    0.1322              -12.89          37.23          48.93          51.95          8.902        -0.9054          118.1          -17.4          52.87          119.5          107.9
    0.1586               -12.9          37.23          48.93          51.95          8.901        -0.9013          118.1         -17.39          52.88          119.5          107.9
     0.185               -12.9          37.22          48.93          51.95            8.9         -0.897          118.1         -17.39          52.89          119.4          107.9
    0.2114               -12.9          37.22          48.92          51.96          8.899        -0.8924          118.1         -17.39           52.9          119.4          107.9
    0.2379               -12.9          37.21          48.92          51.96          8.898        -0.8875          118.1         -17.38          52.91          119.4          107.9
    0.2643              -12.91           37.2          48.91          51.97          8.897        -0.8821          118.1         -17.38          52.92          119.4          107.9
    0.2907              -12.91          37.19          48.91          51.97          8.896        -0.8764          118.1         -17.37          52.93          119.4          107.9
    0.3172              -12.91          37.19           48.9          51.98          8.895        -0.8703          118.0         -17.37          52.95          119.3          107.9
    0.3436              -12.92          37.18           48.9          51.98          8.894        -0.8636          118.0         -17.36          52.96          119.3          107.9
      0.37              -12.92          37.17          48.89          51.99          8.892        -0.8564          118.0         -17.36          52.98          119.3          107.9
    0.3965              -12.93          37.16          48.88          51.99          8.891        -0.8486          118.0         -17.35           53.0          119.2          107.9
    0.4229              -12.93          37.15          48.88           52.0          8.889        -0.8401          118.0         -17.35          53.02          119.2          107.9
    0.4493              -12.94          37.14          48.87          52.01          8.887        -0.8308          118.0         -17.34          53.04          119.2          107.9
    0.4757              -12.94          37.12          48.86          52.02          8.885        -0.8207          118.0         -17.33          53.06          119.1          107.9
    0.5022              -12.95          37.11          48.85          52.03          8.883        -0.8096          118.0         -17.32          53.09          119.1          107.9
    0.5286              -12.95          37.09          48.84          52.04          8.881        -0.7975          118.0         -17.32          53.12          119.0          107.9
     0.555              -12.96          37.08          48.82          52.05          8.878        -0.7841          118.0         -17.31          53.15          119.0          107.9
    0.5815              -12.97          37.06          48.81          52.06          8.875        -0.7693          117.9         -17.29          53.18          118.9          107.9
    0.6079              -12.98          37.04           48.8          52.08          8.872         -0.753          117.9         -17.28          53.22          118.9          107.9
    0.6343              -12.99          37.01          48.78          52.09          8.869        -0.7348          117.9         -17.27          53.26          118.8          107.9
    0.6608               -13.0          36.99          48.76          52.11          8.865        -0.7145          117.9         -17.25          53.31          118.7          107.9
    0.6872              -13.01          36.96          48.74          52.13           8.86        -0.6917          117.9         -17.24          53.36          118.6          107.9
    0.7136              -13.03          36.93          48.72          52.15          8.855        -0.6661          117.8         -17.22          53.42          118.5          107.9
      0.74              -13.04          36.89          48.69          52.17           8.85        -0.6372          117.8          -17.2          53.49          118.4          107.9
    0.7665              -13.06          36.85          48.66           52.2          8.843        -0.6044          117.8         -17.17          53.57          118.3          107.9
    0.7929              -13.08           36.8          48.63          52.23          8.836        -0.5669          117.7         -17.14          53.65          118.1          107.9
    0.8193              -13.11          36.74          48.59          52.27          8.828        -0.5239          117.7         -17.11          53.75          117.9          107.9
    0.8458              -13.14          36.68          48.54          52.31          8.818        -0.4743          117.6         -17.07          53.87          117.7          107.9
    0.8722              -13.17          36.61          48.49          52.36          8.807        -0.4166          117.6         -17.03           54.0          117.5          108.0
    0.8986              -13.21          36.52          48.43          52.42          8.794        -0.3491          117.5         -16.98          54.16          117.2          108.0
    0.9251              -13.25          36.42          48.36          52.49          8.778        -0.2695          117.4         -16.92          54.34          116.9          108.0
    0.9515              -13.31           36.3          48.27          52.57           8.76         -0.175          117.3         -16.85          54.56          116.5          108.0
    0.9779              -13.37          36.15          48.17          52.66          8.738       -0.06166          117.2         -16.77          54.83          116.1          108.0
     1.004              -13.45          35.98          48.04          52.78          8.711        0.07545          117.1         -16.67          55.14          115.5          108.1
     1.031              -13.54          35.77          47.89          52.92          8.678          0.243          116.9         -16.54          55.53          114.8          108.1
     1.057              -13.66           35.5           47.7           53.1          8.638         0.4497          116.7         -16.39          56.01          114.0          108.1
     1.084               -13.8          35.17          47.46          53.32          8.588         0.7075          116.4         -16.19          56.61          113.0          108.2
      1.11              -13.99          34.76          47.17          53.59          8.525          1.032          116.1         -15.95          57.37          111.6          108.3
     1.136              -14.22          34.23          46.79          53.94          8.444          1.445          115.7         -15.65          58.33          110.0          108.3
     1.163              -14.52          33.56          46.31          54.39          8.341          1.973          115.2         -15.25          59.55          107.8          108.5
     1.189               -14.9          32.69          45.69          54.96          8.209          2.652          114.5         -14.75          61.13          105.1          108.6
     1.216              -15.39          31.59           44.9           55.7          8.041          3.518          113.6          -14.1          63.14          101.6          108.8
     1.242              -16.01           30.2          43.91          56.62          7.829          4.607          112.5         -13.29          65.67          97.18          109.0
     1.269              -16.76           28.5           42.7          57.75           7.57          5.934          111.1          -12.3          68.75          91.82          109.3
     1.295              -17.63          26.54           41.3          59.06           7.27          7.472          109.6         -11.16          72.32           85.6          109.6
     1.322              -18.57          24.41          39.78          60.47          6.946          9.138          107.9         -9.915          76.19          78.86          110.0
     1.348              -19.51          22.28          38.26          61.88          6.622           10.8          106.2         -8.674          80.06          72.12          110.3
     1.374              -20.38          20.32          36.86          63.19          6.322          12.34          104.6         -7.528          83.63           65.9          110.6
     1.401              -21.13          18.63          35.65          64.31          6.064          13.67          103.3          -6.54          86.71          60.54          110.9
     1.427              -21.75          17.24          34.66          65.24          5.852          14.76          102.2         -5.728          89.24          56.13          111.1
     1.454              -22.24          16.13          33.87          65.97          5.683          15.62          101.3         -5.083          91.25          52.63          111.3
      1.48              -22.62          15.26          33.25          66.55          5.551           16.3          100.6         -4.578          92.83          49.89          111.5
     1.507              -22.92          14.59          32.77           67.0          5.448          16.83          100.1         -4.184          94.05          47.75          111.6
     1.533              -23.15          14.06          32.39          67.35          5.368          17.24          99.66         -3.877          95.01          46.08          111.7
     1.559              -23.34          13.65           32.1          67.62          5.304          17.57          99.33         -3.635          95.77          44.77          111.7
